<?xml version="1.0" encoding="utf-8"?>
<!-- Generator: Adobe Illustrator 16.0.0, SVG Export Plug-In . SVG Version: 6.00 Build 0)  -->
<!DOCTYPE svg PUBLIC "-//W3C//DTD SVG 1.1//EN" "http://www.w3.org/Graphics/SVG/1.1/DTD/svg11.dtd">
<svg version="1.1" id="Layer_1" xmlns="http://www.w3.org/2000/svg" xmlns:xlink="http://www.w3.org/1999/xlink" x="0px" y="0px"
	 width="180.525px" height="83px" viewBox="8.95 4.115 180.525 83" enable-background="new 8.95 4.115 180.525 83"
	 xml:space="preserve">
<g>
	<path fill="#414042" d="M147.366,30.322c-1.364-14.67-13.741-26.207-28.752-26.207c-10.145,0-19.044,5.241-24.196,13.181
		c-2.854-0.962-5.924-1.459-9.089-1.459c-14.267,0-26.118,10.394-28.41,23.978h3.563c2.264-11.632,12.562-20.473,24.844-20.473
		c2.543,0,4.993,0.372,7.321,1.086c1.116,0.344,2.234,0.746,3.29,1.24c0.527-1.053,1.116-2.045,1.796-3.007
		c4.561-6.639,12.223-11.013,20.877-11.013c13.058,0,23.854,9.926,25.219,22.613l0.091,3.504c0.436-0.03,0.871-0.03,1.301-0.03
		c0.748,0,1.491,0.03,2.237,0.093c5.396,0.497,10.328,2.668,14.208,5.987h5.023C161.852,34.418,155.026,30.882,147.366,30.322z"/>
	<path fill="#414042" d="M31.71,61.861c0-1.021-0.206-1.977-0.817-2.792c-1.159-1.632-3.269-2.654-5.716-3.125
		c-1.844-0.345-3.474-0.282-5.378,0c-2.453,0.401-4.836,1.422-6.265,3.534l-2.927-1.837c4.016-6.468,18.585-6.807,23.076-0.612
		c1.087,1.564,1.431,3.267,1.431,5.104v17.904c0,2.52,1.633,3.197,3.336,3.197v3.068c-2.862,0.199-5.107-0.619-6.124-2.726
		c-2.933,2.86-6.609,3.537-9.945,3.537c-1.632,0-3.334-0.271-4.966-0.677c-9.259-2.518-10.345-13.686-3.404-18.245
		c4.222-2.861,10.961-3.268,17.7-1.979L31.71,61.861L31.71,61.861z M31.71,69.346c-5.039-1.289-11.641-1.426-15.526,1.295
		c-4.759,3.34-4.354,10.688,2.183,12.525c1.227,0.339,2.588,0.479,4.013,0.479c3.541,0,9.331-1.364,9.331-5.719L31.71,69.346
		L31.71,69.346z"/>
	<path fill="#414042" d="M51.807,86.502c-5.582,0.343-8.371-1.432-8.371-7.49V38.581h3.405v40.503c0,3.535,1.428,4.36,4.966,4.36
		V86.502z"/>
	<path fill="#414042" d="M60.39,76.976c0,1.087,0.204,1.974,0.818,2.854c1.155,1.566,3.265,2.657,5.646,3.065
		c1.84,0.339,3.541,0.339,5.379,0c2.523-0.339,4.84-1.365,6.332-3.472l2.926,1.768c-1.971,3.203-5.31,4.562-8.778,5.11
		c-2.044,0.33-3.879,0.404-5.923,0.06c-3.473-0.543-6.604-2.104-8.372-4.492c-1.086-1.563-1.5-3.265-1.5-5.174V61.588
		c0-4.489,3.402-7.283,7.828-8.504c3.199-0.889,6.674-0.889,9.871,0c8.851,2.653,10.346,14.428,2.111,18.782
		c-4.766,2.589-11.779,1.636-16.339,1.636L60.39,76.976L60.39,76.976z M60.39,70.502c2.927-0.131,10.148,0.614,14.704-1.562
		c5.786-2.726,4.697-10.889-1.361-12.596c-2.586-0.686-5.512-0.686-8.099,0c-2.925,0.816-5.243,2.584-5.243,5.242L60.39,70.502
		L60.39,70.502z"/>
	<path fill="#414042" d="M88.52,86.229V71.053v-8.717v-9.525h3.337v3.672c2.927-4.148,9.393-4.898,14.159-3.672l-0.545,3.193
		c-4.49-1.492-13.475,0.821-13.475,6.266v23.959H88.52z"/>
	<path fill="#414042" d="M129.576,61.861c0-1.021-0.208-1.977-0.817-2.792c-1.158-1.632-3.265-2.654-5.717-3.125
		c-1.839-0.345-3.475-0.282-5.381,0c-2.445,0.401-4.829,1.422-6.257,3.534l-2.933-1.837c4.02-6.468,18.588-6.807,23.079-0.612
		c1.088,1.564,1.432,3.267,1.432,5.104v17.904c0,2.52,1.633,3.197,3.334,3.197v3.068c-2.858,0.199-5.105-0.619-6.127-2.726
		c-2.928,2.86-6.603,3.537-9.938,3.537c-1.636,0-3.333-0.271-4.967-0.677c-9.256-2.518-10.347-13.686-3.407-18.245
		c4.224-2.861,10.962-3.268,17.7-1.979L129.576,61.861L129.576,61.861z M129.576,69.346c-5.035-1.289-11.645-1.426-15.518,1.295
		c-4.771,3.34-4.358,10.688,2.175,12.525c1.225,0.339,2.588,0.479,4.015,0.479c3.54,0,9.326-1.364,9.326-5.719L129.576,69.346
		L129.576,69.346z"/>
	<path fill="#414042" d="M164.247,86.229V61.861c0-4.017-4.63-6.198-9.261-6.198c-4.626,0-9.33,2.115-9.33,6.744v23.824h-3.468
		v-33.49h3.468v3.129c2.523-2.718,6.065-3.535,9.265-3.535c6.33-0.074,12.79,2.925,12.79,9.593v24.302H164.247L164.247,86.229z"/>
	<path fill="#414042" d="M180.189,38.445v14.366h8.101v3.059c-2.721,0-5.382,0-8.101,0.074v20.891c0,5.723,4.218,6.266,8.715,6.4
		v3.129c-6.197,0.345-12.112-1.902-12.112-9.462V55.87h-5.857v-3.059h5.857V38.445H180.189z"/>
</g>
</svg>
